<?xml version="1.0" standalone="no"?><!DOCTYPE svg PUBLIC "-//W3C//DTD SVG 1.1//EN" "http://www.w3.org/Graphics/SVG/1.1/DTD/svg11.dtd"><svg t="1539247872858" class="icon" style="" viewBox="0 0 1024 1024" version="1.1" xmlns="http://www.w3.org/2000/svg" p-id="1540" xmlns:xlink="http://www.w3.org/1999/xlink" width="16" height="16"><defs><style type="text/css"></style></defs><path d="M595.607298 0c-10.942742 0.051617-21.730633 6.477897-24.517935 14.839803-17.498063 0.077425-37.783428 9.032923-50.326288 15.897945-9.265199 5.058437-15.846329 14.994653-23.872726 18.788481-52.829698 24.956677-41.809531 58.714003-57.578435 89.761451-3.251852 6.400471-2.271135 17.23998-6.452088 23.072667-8.77484 12.207351-48.958445 42.738632-56.210592 55.229875-1.212993 2.064668 3.251852 5.600413 5.548795 6.142388 14.039744 3.251852 30.970023 3.329278 43.228991 1.290418 1.961435 4.07772-7.303764 11.200825-8.542564 15.562436-2.967961 10.426575 5.729454 25.292186 3.071193 32.337867-4.877779 0.438742-19.43369-0.025808-25.808352-0.077426-13.084835-0.129042-30.247389-9.445857-38.712529-2.65826-4.258378 3.380894-0.593592 13.833277-4.593887 17.498063-1.238801 1.135568-4.413228-0.335509-5.574604 0.877484-3.793828 4.051911-3.200236 14.762378-1.858202 18.478781 1.703351 4.671312 11.716992 5.677838 14.039744 10.065257 2.013052 3.819636 1.72916 7.20053-2.013051 9.291007-17.652913 9.832982-54.920175 74.199014-73.966739 108.549932-23.563026 42.480549-49.34557 101.452635-64.262799 147.675395C199.836209 636.382363 152.452073 860.114973 187.680475 904.247256c116.215013 145.71396 307.429098 141.687857 482.074221 76.599191 27.924638-10.400766 4.619695-176.58075 47.693836-234.262418 12.775135-17.136746 31.718466-46.919585 45.706593-70.405186 5.445562 0.438742 6.039155-0.903292 6.632746-3.071194 1.109759-4.051911-0.593592-3.200236-1.574309-7.174723 16.001179-20.698299 32.337866-65.475791 35.641335-96.213539 1.083951-10.065258-5.445562-8.723223-5.084246-13.78166 0.516167-7.04568 9.187774-12.826751 8.31029-19.846623-0.696826-5.445562-8.258673-7.484422-9.187774-13.394535 4.85197-5.419754 16.388304-18.478781 24.827636-26.685837 6.477897 1.006526 12.749326-9.962024 8.078014-16.620579-10.168491-14.401061-27.09877-25.214761-44.700067-29.266672-0.025808-0.025808-0.051617 0-0.077425 0-2.219518-1.290418-3.92287-3.071194-5.00682-6.452089-0.258084-0.903292 1.548501-1.780776 2.116285-2.50341 0.929101-1.238801 1.496884-3.664786 0.877484-5.084245-0.593592-1.367843-3.458319-1.393651-4.103528-2.735686-2.271135-4.69712-0.541975-14.530103 0.877484-20.749915 10.116874-2.167902 19.820815-7.458614 27.021345-14.349444 31.202298-27.769788 48.468086-73.502189 38.299595-114.84717-4.284187-17.214171-18.246505-32.466908-36.596244-32.828225-1.238801-0.025808-2.451794 0.051617-3.716403 0.180658-33.628284 3.716403-56.236401 35.047743-67.669501 64.520882-10.349149 27.847213-13.730044 64.598307 7.252148 87.90325 6.89083 7.20053 15.691478 10.297533 24.776018 10.478191-2.684069 15.123695-14.710761 25.266377-27.09877 27.743979-4.413228 0.877484-3.251852 6.400471-2.580835 8.955499 0.645209 2.555027 3.174427 3.071194 3.948677 5.084245 0.696826 1.806585 0.929101 4.103528 0.877484 6.606939-1.754968 1.471076-3.535744 2.916344-5.31652 4.439036-10.65885 8.981307-21.859675 28.544038-30.479665 40.415881-8.490948-4.619695-5.187479-10.374958-21.704824-14.684953l11.768608-33.0605-6.839213-2.761494 3.793828-14.013935h6.116579l1.858202-3.406703-6.142388-3.303469 1.367842-5.00682 3.561553-0.309701c11.949267-41.83534 15.51082-75.231348-34.918701-95.981264 3.045386-4.051911 7.510231-7.613464 10.168491-11.691183 2.942152-4.54227 1.058142-14.710761 5.961729-17.007705 7.432806 3.200236 24.543743 12.981601 30.815174-3.638978 7.381189-19.614348-12.258968-55.746042-9.213582-76.547574 1.522693-10.245916 9.342624-2.580835 12.026692-8.77484 1.703351-3.948678-0.103233-11.871842 1.625926-20.078898 13.00741 2.916344 44.467792 6.916639 59.591487 7.974781 3.561553 0.258084 6.916639-3.974486 5.084245-5.65203-19.356265-17.472255-43.564499-41.886957-55.746042-51.358622-1.212993-5.187479 2.142093-14.013936-0.645209-18.47878-10.478191-16.930279-16.646388-27.924638-22.014524-58.868853-1.909818-10.96855-51.745747-39.435163-82.328646-48.958445-1.212993-9.497474-14.168786-20.336982-25.808353-21.214466-0.748442-0.051617-1.548501-0.077425-2.271135-0.077425z m208.737958 259.29652c23.382368-0.025808 32.699183 27.150387 32.260441 47.022819-0.954909 36.363969-16.672196 74.921648-48.803596 93.710129-15.20112 9.600707-36.260736 2.864727-42.583782-13.962319-13.910702-34.325109-1.393651-74.534523 19.691774-102.510777 9.807174-11.897651 22.969434-23.743685 39.435163-24.259852z m-0.258084 7.252147c-0.903292 0.025808-1.806585 0.129042-2.735685 0.232276-24.930869 3.948678-40.828814 29.086014-48.468087 52.442572-2.425985 7.794123-4.23257 16.388304-4.748737 25.085719 0.980717-8.800648 3.458319-17.498063 6.529514-25.240569 11.071783-28.156913 47.564794-66.301658 74.276439-36.312352-5.187479-9.445857-14.142977-16.439921-24.853444-16.207646z m-138.719896 73.708656c35.047743 15.04627 42.712824 38.841571 21.6274 86.148281l3.613169 1.935627-0.877484 5.084245h-6.297238l-0.15485 4.593887 5.239095 2.50341-2.322751 13.626811-7.277956-0.800059c-2.296943 47.926111-16.362496 29.395714-16.052795 62.97238 0.232275 23.588834 11.484717 36.493011 19.201414 43.306416-1.264609 1.625926-2.555027 3.200236-4.026103 4.619696-8.516756 8.103823-15.794712 15.872137-20.982191 20.233748-21.395124-32.286249-61.630346-85.941815-85.967623-116.137587-4.877779-6.064963-4.981012-18.427164 0.722634-23.717877 9.652324-2.684069 19.511115 7.329572 21.214466 0.645209 4.774545-18.556206-45.242042-38.118937-36.931753-55.487958 20.749916-3.561553 38.944804 2.013052 55.075025 1.858201s32.647566-2.142093 35.976844-7.174722c4.464845-6.73598 4.826162-15.381778 7.406997-22.659734 1.342034-3.716403 6.348855-5.781071 7.587656-8.310289 1.987243-4.000295 1.961435-8.903882 3.226044-13.239685z" fill="" p-id="1541"></path></svg>